HIERARCHY
ROOT HipCenter
{
    OFFSET 0.0 0.0 -0.0
    CHANNELS 6 Xposition Yposition Zposition Zrotation Xrotation Yrotation
    JOINT Spine
    {
        OFFSET 0.0 10.53200626373291 0.0
        CHANNELS 3 Zrotation Xrotation Yrotation
        JOINT ShoulderCenter
        {
            OFFSET 0.0 31.102407455444336 0.0
            CHANNELS 3 Zrotation Xrotation Yrotation
            JOINT LeftShoulder
            {
                OFFSET 19.383438110351562 0.0 0.0
                CHANNELS 3 Zrotation Xrotation Yrotation
                JOINT LeftElbow
                {
                    OFFSET 26.1624698638916 0.0 0.0
                    CHANNELS 3 Zrotation Xrotation Yrotation
                    JOINT LeftWrist
                    {
                        OFFSET 30.865203857421875 0.0 0.0
                        CHANNELS 3 Zrotation Xrotation Yrotation
                        JOINT LeftHand
                        {
                            OFFSET 3.1336443424224854 0.0 0.0
                            CHANNELS 3 Zrotation Xrotation Yrotation
                            End Site
                            {
                                OFFSET 1.25345778465271 0.0 0.0
                            }
                        }
                    }
                }
            }
            JOINT RightShoulder
            {
                OFFSET -19.383438110351562 0.0 0.0
                CHANNELS 3 Zrotation Xrotation Yrotation
                JOINT RightElbow
                {
                    OFFSET -26.1624698638916 0.0 0.0
                    CHANNELS 3 Zrotation Xrotation Yrotation
                    JOINT RightWrist
                    {
                        OFFSET -30.865203857421875 0.0 0.0
                        CHANNELS 3 Zrotation Xrotation Yrotation
                        JOINT RightHand
                        {
                            OFFSET -3.1336443424224854 0.0 0.0
                            CHANNELS 3 Zrotation Xrotation Yrotation
                            End Site
                            {
                                OFFSET -1.25345778465271 0.0 0.0
                            }
                        }
                    }
                }
            }
            End Site
            {
                OFFSET 0.0 12.440961837768555 0.0
            }
        }
    }
    JOINT LeftHip
    {
        OFFSET 14.157835006713867 0.0 0.0
        CHANNELS 3 Zrotation Xrotation Yrotation
        JOINT LeftKnee
        {
            OFFSET 0.0 -41.68223190307617 0.0
            CHANNELS 3 Zrotation Xrotation Yrotation
            JOINT LeftAnkle
            {
                OFFSET 0.0 -43.66859817504883 0.0
                CHANNELS 3 Zrotation Xrotation Yrotation
                JOINT LeftFoot
                {
                    OFFSET 0.0 -11.319293022155762 0.0
                    CHANNELS 3 Zrotation Xrotation Yrotation
                    End Site
                    {
                        OFFSET 0.0 0.0 4.527717590332031
                    }
                }
            }
        }
    }
    JOINT RightHip
    {
        OFFSET -14.157835006713867 0.0 0.0
        CHANNELS 3 Zrotation Xrotation Yrotation
        JOINT RightKnee
        {
            OFFSET 0.0 -41.68223190307617 0.0
            CHANNELS 3 Zrotation Xrotation Yrotation
            JOINT RightAnkle
            {
                OFFSET 0.0 -43.66859817504883 0.0
                CHANNELS 3 Zrotation Xrotation Yrotation
                JOINT RightFoot
                {
                    OFFSET 0.0 -11.319293022155762 0.0
                    CHANNELS 3 Zrotation Xrotation Yrotation
                    End Site
                    {
                        OFFSET 0.0 0.0 4.527717590332031
                    }
                }
            }
        }
    }
}
MOTION
Frames: 8
Frame Time: 0.03333333333333333
-3.4000000953674316 5.299999713897705 35.20000076293945 -1.636577742290204 -0.5454265404468975 2.316522555847678 -2.0098373771688136 -3.428215530532038 -0.022751847436256283 2.9524444664265805e-07 4.760493630056488e-07 11.60001874050667 132.53483951950605 47.657457177139364 -111.2834037981012 -4.581614860829622e-07 -5.936035517604307e-06 141.25393002578076 -2.9986109228317258e-06 7.279001544140475 49.53056727572693 -1.5902773407317584e-15 -4.4139062980501586e-32 3.1805546814635168e-15 -130.04958291458715 9.443411883430878 134.3786961446404 1.5217348397584212e-07 3.745115695542024e-06 -109.46811931138558 1.919623225137699e-07 -79.80649223425833 -41.38997193581171 6.3611093629270335e-15 0.0 0.0 6.533085674829109 -2.7763042939705613 -24.24101415153596 -6.862136114878619 22.493156772250497 -23.718791614344987 92.0667681454757 -37.86573729354605 149.55004710205793 0.0 0.0 3.180554681463516e-15 -21.792655499483917 0.9572759462885593 42.32802446326676 -0.09467987808065537 -0.06417066728097494 -0.1356743542918839 -63.40589189292504 -44.78394384740786 -138.05681377346363 -2.2069531490250793e-32 -1.5902773407317582e-15 -1.5902773407317582e-15
-3.4000000953674316 5.299999713897705 35.20000076293945 -1.0912163343582262 1.5510644218344641e-09 1.9731283519349052 -2.5851019754140805 -4.53053360679109 -0.030677958350939193 1.2129653837355976e-07 -3.4215279793942334e-07 11.870246315127728 133.09901932688723 47.07543794152498 -111.76610854514135 9.414278443864243e-07 -5.904813876354046e-06 141.21992204432874 -2.0222072258344843e-06 5.211403487141307 50.351598631250646 -1.7655625192200634e-31 -6.361109362927033e-15 -3.1805546814635164e-15 -129.69759087808433 9.66734294914604 133.53320224259414 -1.378201067220549e-06 -3.5532721748375513e-06 -107.91734763728553 9.981582774993124e-06 -77.68597400443048 -43.746167844393774 0.0 -3.1805546814635168e-15 0.0 5.993597823998912 -3.121659603512657 -24.687494031723293 -7.1533634215757615 22.310828069335763 -23.219740537464908 92.33049031590404 -37.506560821257885 149.70739142167383 2.648343778830095e-31 6.361109362927033e-15 -4.770832022195274e-15 -22.359448829467336 0.34107637671293517 42.45147506016869 -0.0036404145766817555 0.02919493429170094 0.06147609396354657 -63.71151357711673 -45.11991623221701 -138.10907713378793 0.0 -7.95138670365879e-15 0.0
-3.4000000953674316 5.299999713897705 35.29999923706055 -1.0912163137690167 -0.5455502227236113 1.9939532041339778 -2.756675757943378 -4.161331883226511 -0.04200461574063406 -3.239997074703189e-07 1.090715282903678e-07 11.728237582987601 133.08510077069138 47.294814244289476 -111.53303718765498 1.0898391586992398e-06 4.115717758325071e-06 141.1167789151663 -5.820556981580407e-07 5.023685100230351 50.27672864043324 -3.975693351829396e-16 0.0 0.0 -128.97108389993065 9.88644300126404 132.7963595529433 -1.9539013772015225e-07 2.27050655194352e-06 -106.26048045244039 1.5341339625143815e-05 -79.83559723564993 -42.57523935831695 -8.827812596100317e-32 -3.1805546814635164e-15 -3.1805546814635164e-15 5.996782436853609 -2.574174133103296 -24.76845730025727 -7.144022809039784 22.357276304455894 -23.257445869785908 92.16498944347944 -37.42516887166716 149.58993192442887 4.4139062980501586e-32 1.5902773407317584e-15 -3.1805546814635168e-15 -22.342526109597735 0.853257674720593 42.63956145125285 0.17294839829032105 0.03881144872701597 0.081085559626924 -64.06096724948762 -44.666593834660404 -138.51142627564343 -3.1805546814635168e-15 -1.5902773407317584e-15 3.1805546814635168e-15
-3.5 5.299999713897705 35.400001525878906 -1.0912163214064066 -0.5455710642961671 1.9939664657564982 -2.9667817521921753 -4.537110886073005 -0.06241276154323637 1.1096565871110643e-07 9.811413359654378e-08 11.711741310543411 133.3832126488271 46.513979487864724 -111.92277746824998 -1.2486020158953875e-08 1.3650657965101577e-06 140.98293553921974 -2.1639243207202155e-06 5.801461227328008 48.61859803697603 3.3793393490549868e-15 0.0 0.0 -128.1589168352331 9.946994549912716 132.7024023026527 -6.320732283044768e-07 2.195175561185554e-06 -105.44235953434612 -2.5301383696100787e-06 -75.90853109359833 -42.87617284328971 -6.3611093629270335e-15 9.54166404439055e-15 6.3611093629270335e-15 6.001712789963109 -2.4360448775305437 -24.678819213797734 -7.047873195942408 22.241789043223466 -22.9807653856272 92.17635413101596 -37.81452295774928 149.23886921673156 -6.361109362927035e-15 -4.770832022195277e-15 -2.648343778830095e-31 -22.288302883302162 0.8526252740775959 43.1762582417114 0.1270585695311125 -0.10261313365886816 -0.2160836605527671 -63.80183049329735 -44.34153985079123 -138.5925740612989 3.1805546814635176e-15 8.827812596100317e-32 3.1805546814635176e-15
-3.5 5.299999713897705 35.5 -1.0912163332465534 -1.0910222367645541 2.3295722127287526 -2.9837211495406346 -4.343044481506612 -0.06438376906273217 2.2527042393159304e-07 3.771620652314163e-07 11.39234883963732 133.48744541431972 45.98884485896085 -112.19163786898503 -1.412803474222415e-06 -2.43508261151624e-06 140.93000259122448 -6.983490151970612e-07 6.215500116221366 48.7726895113298 -3.3793393490549868e-15 6.3611093629270335e-15 1.8759101766713175e-31 -127.9270730670532 9.649036208773827 132.70917030622923 2.912582916001415e-06 4.442676336640585e-06 -105.16790388413179 6.376139056855597e-06 -78.86357977758321 -41.93348586272539 6.3611093629270335e-15 3.1805546814635168e-15 -1.7655625192200634e-31 5.863666588362337 -2.061899299515648 -24.162584418152225 -6.661735542637771 22.643092910534282 -23.64421039810769 91.59498011311946 -37.646698599073716 148.99918118134963 0.0 0.0 -1.5902773407317584e-15 -22.140488278824755 1.4800356809573274 42.2700900575422 -0.22372620075763466 0.05966076558793802 0.1261470826654909 -63.44803278341656 -45.254876634217794 -137.86591835042825 0.0 -7.95138670365879e-15 0.0
-3.5 5.299999713897705 35.60000228881836 -0.54565699819119 -1.09117070336304 2.3469825252306586 -3.7497595081999475 -4.881260403871529 -0.06341916775462045 -3.2943388006339516e-08 -5.054729247247797e-07 11.490846718504745 133.49989140654154 45.55370661759708 -112.5531203141511 1.8191859319538375e-08 2.058998403546955e-06 141.04151955196266 9.756010745762574e-07 8.157680206970399 48.9081083766675 -3.1805546814635168e-15 -1.7655625192200634e-31 6.3611093629270335e-15 -127.41277409509094 8.653739031598048 133.84814233461526 -2.1874192897442197e-06 -1.0486036035051377e-06 -106.07820042272436 7.298625771060071e-06 -78.30810207107712 -42.02091774634457 0.0 3.1805546814635168e-15 0.0 5.335682987435675 -1.9093538147065443 -24.34470509445933 -6.689278544892865 22.497283254783305 -23.657830321857563 91.59104888141553 -37.46241158142146 149.29598681548154 0.0 0.0 -3.1805546814635164e-15 -22.810660253930138 1.5076074037439795 42.458656915765175 -0.0485742263657259 -0.11093792070527317 -0.2336442311469536 -63.97557519913277 -44.862758818798554 -138.51152830113801 -3.1805546814635168e-15 6.3611093629270335e-15 -3.1805546814635168e-15
-3.5999999046325684 5.200000286102295 35.60000228881836 -1.080923172691924 -1.080735991467983 2.677069572393445 -3.429766571763665 -4.88443314847949 -0.08056073862434832 -3.911694193631817e-08 -2.4190067664286305e-07 11.309852274268671 133.73238835566067 45.6894838321798 -112.61163656779652 3.802349533771883e-06 -4.436376949410467e-06 141.133457238519 8.757494493387844e-07 7.211322955425759 49.56143240071545 2.1866313435061676e-15 -6.069121159818968e-32 -3.1805546814635168e-15 -126.81766095889343 7.71570063214773 134.56711119189154 5.233119164041504e-07 3.862872480603882e-06 -107.00498418335107 -3.953444837136463e-07 -74.22072491993231 -42.90152170917203 0.0 0.0 0.0 5.9966687038658275 -1.9823758413679462 -24.760215935666825 -6.849535057262548 22.43547038411717 -23.389017565438664 92.23717871133105 -37.548173753180734 149.6192929340705 -3.180554681463516e-15 -1.590277340731758e-15 1.590277340731758e-15 -22.272480303984278 1.4705972074805258 42.95761367764921 0.13852167815286398 0.07830577561304741 0.16165692289852585 -64.29036776757721 -44.34723338979514 -138.6358671036156 -3.1805546814635164e-15 4.4139062980501586e-32 -1.5902773407317582e-15
-3.700000047683716 5.200000286102295 35.70000076293945 -1.6211456492168155 -1.0804956306466618 2.3377596536405867 -2.8767762868941986 -4.945489691966137 -0.07982881568171965 -6.123507455508166e-07 7.209952884044754e-07 11.80414946793723 133.9032119874281 45.75964520730279 -112.7683074274449 5.324966931667536e-06 6.719757933927236e-06 140.92027989572205 -1.4688528138363538e-06 7.479536817102887 49.20145449082888 1.987846675914698e-16 0.0 0.0 -126.49772546766914 7.494636507569533 134.8051185016468 1.1030355770105355e-06 -4.099276290454129e-07 -107.55855330629949 3.379153702060239e-06 -77.34083981269039 -41.907932770080855 6.361109362927033e-15 -3.531125038440127e-31 -6.361109362927033e-15 6.55357046977074 -1.8317102590069272 -24.616192545589787 -6.735196157652667 22.33324595037109 -23.34434958020019 91.57043253196731 -37.55572418486711 149.1120101952722 0.0 0.0 -1.5902773407317584e-15 -21.740107425555887 1.3251441230560177 42.5768102036214 0.046354434350191646 -0.01339852350162416 -0.028091057889132087 -63.49597840000585 -44.587034257894906 -138.0619673224712 -3.1805546814635176e-15 8.827812596100317e-32 -3.1805546814635176e-15
